# xmcd CD database file
#
# Track frame offsets:
#	150
#	12675
#	28275
#	44550
#	58272
#	78075
#	93450
#	108975
#	123225
#	138150
#	153000
#	166275
#
# Disc length: 2419 seconds
#
# Revision: 1
# Processed by: cddbd v1.5.1PL0 Copyright (c) Steve Scherf et al.
# Submitted via: CDex 1.51
#
DISCID=9809710c
DTITLE=Western Swingers - Føler en god harmoni
DYEAR=1997
DGENRE=Country
TTITLE0=Være nær deg
TTITLE1=Føler en god harmoni
TTITLE2=Om jeg savner deg
TTITLE3=Lottipensjonisten
TTITLE4=Måneskinn over Milano
TTITLE5=Leiken
TTITLE6=En liten tåre
TTITLE7=Bildet ditt går aldri bort
TTITLE8=Hank Williams
TTITLE9=En gammel "reo"  rutebil
TTITLE10=Martin og jentene
TTITLE11=Jeg må ut av det
EXTD=YEAR: 1997
EXTT0=
EXTT1=
EXTT2=
EXTT3=
EXTT4=
EXTT5=
EXTT6=
EXTT7=
EXTT8=
EXTT9=
EXTT10=
EXTT11=
PLAYORDER=
